<?xml version="1.0" standalone="no"?>
<!DOCTYPE svg PUBLIC "-//W3C//DTD SVG 20010904//EN"
 "http://www.w3.org/TR/2001/REC-SVG-20010904/DTD/svg10.dtd">
<svg version="1.0" xmlns="http://www.w3.org/2000/svg"
 width="1080.000000pt" height="1080.000000pt" viewBox="0 0 1080.000000 1080.000000"
 preserveAspectRatio="xMidYMid meet">
<metadata>
Created by potrace 1.14, written by Peter Selinger 2001-2017
</metadata>
<g transform="translate(0.000000,1080.000000) scale(0.100000,-0.100000)"
fill="#000000" stroke="none">
<path d="M3640 7473 c-190 -48 -323 -196 -357 -398 -3 -16 -6 -134 -7 -261
l-1 -231 -59 46 c-87 69 -191 100 -321 96 -74 -1 -115 -8 -160 -24 -33 -13
-66 -23 -72 -24 -7 0 -13 -3 -13 -7 0 -9 -93 -75 -102 -72 -5 1 -7 -1 -5 -6 1
-4 -14 -28 -34 -52 -19 -25 -44 -63 -54 -85 -43 -93 -45 -120 -45 -614 -1
-295 -5 -481 -11 -492 -5 -11 -16 -19 -24 -19 -13 0 -15 66 -16 483 0 265 -2
491 -4 502 -25 171 -102 287 -237 356 -146 74 -357 76 -500 3 -64 -32 -165
-133 -197 -194 -54 -105 -54 -101 -57 -605 -2 -258 -4 -480 -4 -492 0 -51 -69
-76 -101 -37 -9 11 -12 144 -13 497 -2 512 -3 521 -52 623 -28 57 -109 147
-169 186 -87 57 -195 83 -314 75 -231 -16 -381 -127 -442 -329 -17 -59 -19
-106 -19 -785 0 -772 2 -810 51 -954 50 -146 141 -293 243 -394 85 -84 186
-160 243 -186 18 -7 33 -17 33 -21 0 -5 8 -8 18 -8 10 0 22 -4 28 -9 22 -21
172 -63 279 -79 68 -10 276 -6 348 7 85 15 227 62 291 96 45 24 50 25 72 10
13 -8 62 -31 108 -49 76 -31 116 -42 226 -62 55 -10 254 -12 312 -3 29 5 68
11 87 14 117 18 315 112 416 195 66 54 182 179 220 236 21 32 42 63 46 67 4 5
7 -15 7 -45 0 -152 84 -313 209 -399 42 -29 128 -65 183 -76 47 -10 195 -5
240 7 143 39 266 140 321 266 11 24 20 46 20 49 0 2 5 19 11 37 7 21 11 204
13 508 1 440 5 519 23 521 4 0 17 2 30 5 13 2 30 -4 42 -16 20 -20 20 -34 21
-622 0 -332 2 -619 4 -639 7 -85 28 -180 60 -274 19 -56 76 -168 88 -173 4 -2
7 -8 7 -14 0 -17 97 -135 158 -192 101 -95 150 -130 258 -184 151 -75 270
-103 450 -107 132 -3 181 5 258 38 21 9 41 17 43 17 3 0 19 11 37 25 172 137
236 318 190 541 -11 53 -12 79 -4 100 6 15 14 62 17 103 3 42 7 78 9 80 2 2
27 -6 56 -17 48 -19 120 -40 203 -57 17 -4 95 -9 175 -11 114 -3 158 -1 200
12 67 19 144 60 184 96 l29 27 34 -29 c101 -89 286 -127 444 -90 104 24 218
101 285 194 17 23 23 26 32 15 84 -106 152 -160 240 -191 72 -25 93 -29 167
-32 210 -6 387 100 483 289 20 39 39 161 38 243 -1 45 0 82 1 82 0 0 27 -39
60 -87 48 -72 209 -248 264 -288 158 -117 325 -192 509 -230 66 -14 619 -18
683 -5 94 18 165 57 238 130 59 59 119 153 119 187 0 7 3 13 8 13 13 0 21 195
10 255 -3 17 -9 46 -12 65 -4 20 -1 61 7 97 18 76 14 207 -9 277 -21 62 -50
121 -70 137 -8 6 -14 15 -14 20 0 4 46 55 103 112 111 112 146 167 172 267 19
74 16 225 -6 272 -10 23 -9 41 6 104 51 216 -29 417 -225 569 -68 53 -218 139
-285 164 -27 11 -63 25 -80 32 -36 15 -21 10 -130 36 -98 23 -196 35 -290 34
-72 -1 -195 -10 -204 -15 -4 -3 -26 -7 -51 -11 -146 -22 -364 -123 -490 -228
-116 -96 -247 -247 -286 -331 -10 -20 -20 -36 -23 -36 -3 0 -6 215 -5 478 0
526 -3 559 -59 666 -34 64 -111 145 -167 175 -82 43 -166 62 -275 61 -120 0
-215 -28 -292 -87 -18 -13 -33 -21 -33 -18 0 14 -90 -102 -114 -146 -56 -102
-59 -131 -60 -661 l0 -486 -53 81 c-87 138 -252 309 -342 356 -14 7 -33 19
-41 26 -56 48 -275 133 -395 154 -274 46 -511 22 -745 -77 -83 -35 -222 -116
-228 -133 -2 -5 -8 -9 -13 -9 -17 0 -150 -133 -220 -219 -37 -46 -87 -122
-111 -170 l-43 -86 -41 91 c-53 118 -115 211 -201 300 -164 171 -370 280 -580
309 -26 4 -59 9 -73 11 -14 3 -59 5 -100 4 l-75 0 1 152 c0 179 -8 250 -38
321 -95 225 -348 344 -598 280z m211 -243 c57 -14 121 -66 151 -124 21 -39 22
-53 23 -361 2 -364 -9 -332 95 -300 86 26 279 31 381 11 233 -48 404 -169 536
-381 22 -35 45 -88 71 -165 25 -75 25 -75 29 -495 2 -231 4 -539 6 -685 l2
-265 27 -51 c30 -58 93 -119 147 -142 46 -20 52 -21 138 -26 109 -7 183 -49
226 -131 31 -59 31 -183 -1 -244 -28 -52 -52 -75 -112 -104 -90 -42 -313 -20
-463 46 -179 80 -328 235 -407 423 -58 141 -60 167 -64 919 -2 314 -7 584 -10
600 -4 17 -19 48 -33 70 -62 95 -152 145 -261 144 -124 -1 -221 -60 -274 -169
l-31 -64 -1 -496 -2 -495 -27 -50 c-101 -183 -394 -161 -454 34 -17 53 -18
134 -17 1172 1 613 4 1130 7 1150 9 51 29 86 75 128 60 56 146 74 243 51z
m4344 -38 c25 -17 50 -46 65 -77 l25 -50 0 -1155 c0 -1206 1 -1188 -40 -1238
-52 -65 -105 -93 -192 -100 -133 -10 -246 72 -260 192 -3 23 -6 534 -7 1136
-1 789 2 1110 10 1147 21 98 83 158 182 178 76 15 165 2 217 -33z m-7349 -729
c48 -16 105 -69 131 -122 17 -33 18 -74 20 -506 1 -258 4 -490 7 -515 12 -91
98 -190 197 -226 56 -20 148 -19 211 2 70 23 150 103 177 177 20 56 21 74 21
526 0 528 1 541 68 608 55 55 106 72 202 68 123 -5 192 -54 220 -154 6 -22 10
-248 10 -583 l0 -548 31 -30 c17 -16 54 -41 81 -54 44 -22 62 -25 137 -23 68
2 96 7 134 27 59 29 111 85 139 148 21 46 21 62 23 544 1 339 5 501 12 510 11
12 13 19 13 36 0 15 76 90 111 107 74 39 239 22 274 -28 8 -12 15 -18 15 -13
0 23 61 -79 69 -116 6 -25 9 -252 7 -548 -3 -486 -4 -508 -25 -585 -77 -276
-278 -481 -549 -559 -50 -14 -106 -23 -197 -30 -69 -5 -197 13 -280 40 -96 31
-120 43 -210 104 l-71 48 -24 -20 c-63 -49 -78 -58 -160 -98 -46 -23 -103 -43
-112 -39 -2 0 -15 -4 -30 -10 -73 -28 -263 -31 -387 -6 -82 16 -205 72 -286
130 -66 47 -195 180 -195 202 0 7 -4 13 -9 13 -10 0 -68 124 -88 189 -32 102
-38 213 -37 686 1 324 4 483 12 511 16 57 76 120 132 138 56 18 151 17 206 -1z
m5869 -22 c94 -25 228 -87 299 -138 166 -120 298 -298 354 -478 43 -140 45
-173 45 -650 l0 -420 -24 -50 c-95 -190 -391 -176 -461 22 -15 42 -17 101 -18
461 0 389 -2 417 -21 475 -77 227 -316 353 -554 292 -114 -30 -222 -116 -279
-222 -76 -142 -66 -337 25 -470 84 -123 194 -186 346 -198 99 -8 119 -12 169
-42 92 -53 133 -172 100 -286 -18 -62 -69 -123 -126 -153 -53 -27 -278 -23
-357 7 -13 5 -23 6 -23 3 0 -3 -6 -2 -12 3 -7 4 -21 9 -31 10 -31 5 -167 71
-224 109 -185 123 -335 331 -388 539 -33 132 -40 320 -16 455 12 69 57 206 75
229 5 7 11 20 12 28 2 8 10 23 18 32 9 10 16 22 16 28 0 5 8 20 18 31 9 12 28
37 42 54 42 54 169 176 190 183 11 4 20 10 20 15 0 12 207 113 218 106 6 -3
12 -1 14 4 2 6 44 19 93 30 126 26 365 22 480 -9z m3080 15 c17 -3 41 -9 55
-13 14 -3 27 -7 30 -8 170 -42 415 -215 470 -332 26 -56 26 -141 -2 -196 -11
-22 -65 -83 -121 -137 -56 -55 -185 -180 -287 -280 -215 -210 -255 -236 -349
-227 -72 6 -110 26 -166 84 -33 34 -47 60 -60 107 -16 59 -16 67 0 121 15 54
28 70 173 217 86 88 158 163 160 167 5 15 -152 12 -212 -4 -189 -50 -323 -218
-331 -413 -2 -69 10 -145 34 -204 29 -74 112 -170 186 -213 90 -53 113 -57
378 -60 246 -3 248 -3 303 -30 80 -39 126 -110 130 -202 4 -113 -40 -197 -131
-246 -38 -21 -52 -22 -320 -21 -254 0 -288 2 -369 22 -109 27 -250 93 -331
154 -65 49 -179 161 -176 173 1 3 -6 14 -17 23 -32 29 -99 150 -130 236 -86
235 -74 540 27 758 122 261 368 457 649 518 68 14 119 18 232 16 80 -2 159 -6
175 -10z m-3246 -1131 c17 -8 31 -18 31 -21 0 -9 -129 5 -170 18 -34 11 -34
12 -10 18 39 11 115 3 149 -15z m-1134 -805 l18 -35 -22 19 c-11 11 -21 28
-21 39 0 24 2 22 25 -23z"/>
</g>
</svg>
